<!-- Generator: Adobe Illustrator 18.1.1, SVG Export Plug-In  -->
<svg version="1.1"
	 xmlns="http://www.w3.org/2000/svg" xmlns:xlink="http://www.w3.org/1999/xlink" xmlns:a="http://ns.adobe.com/AdobeSVGViewerExtensions/3.0/"
	 x="0px" y="0px" width="32px" height="32px" viewBox="0 0 110.3 140.7" enable-background="new 0 0 110.3 140.7"
	 xml:space="preserve">
<defs>
</defs>
<path fill="#1E3E79" d="M55.1,0C24.7,0,0,24.7,0,55.1C0,69,5.2,81.7,13.6,91.4l0,0l0.3,0.3c1.5,1.7,3,3.2,4.7,4.7l36.5,36.5
	l36.1-36.1c11.7-10.1,19.1-25,19.1-41.7C110.3,24.7,85.6,0,55.1,0z"/>
<path fill="#FFFFFF" d="M30.5,28.7c-0.2-3.5,3-6.6,6.4-6.5c5.3,0,10.5,0,15.8,0c5.2,0.1,10.7,1.6,14.3,5.5
	c5.7,5.8,5.3,16.2-0.5,21.8c-0.7,0.6-1.4,1.2-2.1,1.8c3,1.5,5.8,3.7,7.3,6.8c2.7,5.5,2.4,12.6-1.1,17.7c-3.8,5.6-10.9,8-17.4,8.2
	c-7.6,0-15.2,0-22.7,0C30.5,65.5,30.5,47.1,30.5,28.7L30.5,28.7z M43.7,33.3c-1,0.9-1.1,2.4-1.2,3.7c0,3.3,0,6.7,0,10
	c3.2,0,6.5,0,9.7,0c1.9,0,3.9-0.9,5.1-2.5c2.3-3.2,2.2-8.5-1.1-10.9c-2.3-1.7-5.3-1.2-7.9-1.3C46.7,32.4,44.9,32.1,43.7,33.3
	L43.7,33.3z M44,57.4c-1.3,0.8-1.5,2.4-1.5,3.8c0,4,0,8.1,0,12.1c3.7,0,7.5,0,11.2,0c2.6-0.1,5.2-1.4,6.4-3.7
	c1.8-3.5,1.5-8.4-1.6-11.1c-2.5-2.1-6.1-1.9-9.2-1.9C47.5,56.7,45.6,56.4,44,57.4L44,57.4z"/>
<path fill="#00ADEF" d="M81.1,69.9c4.3-1.3,9.2,2.1,9.5,6.6c0.4,4-2.8,7.9-6.7,8.1c-3.9,0.5-7.9-2.6-8.2-6.6
	C75.1,74.5,77.6,70.8,81.1,69.9L81.1,69.9z"/>
</svg>
